<svg xmlns="http://www.w3.org/2000/svg" viewBox="0 0 1280 320" width="1280" height="320" font-family="ui-monospace, &#34;JetBrains Mono&#34;, Menlo, Consolas, monospace">
<rect width="1280" height="320" fill="#0d1117"></rect>
<rect x="0" y="32" width="1280" height="1" fill="#58a6ff" fill-opacity="0.04"></rect><rect x="0" y="64" width="1280" height="1" fill="#58a6ff" fill-opacity="0.04"></rect><rect x="0" y="96" width="1280" height="1" fill="#58a6ff" fill-opacity="0.04"></rect><rect x="0" y="128" width="1280" height="1" fill="#58a6ff" fill-opacity="0.04"></rect><rect x="0" y="160" width="1280" height="1" fill="#58a6ff" fill-opacity="0.04"></rect><rect x="0" y="192" width="1280" height="1" fill="#58a6ff" fill-opacity="0.04"></rect><rect x="0" y="224" width="1280" height="1" fill="#58a6ff" fill-opacity="0.04"></rect><rect x="0" y="256" width="1280" height="1" fill="#58a6ff" fill-opacity="0.04"></rect><rect x="0" y="288" width="1280" height="1" fill="#58a6ff" fill-opacity="0.04"></rect>
<g transform="translate(40,24)">
  <rect width="1200" height="272" rx="12" ry="12" fill="#010409" stroke="#30363d"></rect>
  <line x1="0" y1="44" x2="1200" y2="44" stroke="#30363d"></line>
  <circle cx="28" cy="22" r="6" fill="#30363d"></circle>
  <circle cx="50" cy="22" r="6" fill="#30363d"></circle>
  <circle cx="72" cy="22" r="6" fill="#30363d"></circle>
  <text x="104" y="27" font-size="14" fill="#6e7681" letter-spacing="0.4">saskull@ops ~ /home/alex — zsh</text>
  <g transform="translate(36,76)" font-size="16">
    <text>
      <tspan fill="#7ee787">saskull@ops</tspan><tspan fill="#6e7681">:</tspan><tspan fill="#58a6ff">~</tspan><tspan fill="#6e7681">$ </tspan><tspan fill="#c9d1d9">whoami --verbose</tspan>
    </text>
    <text y="42" font-family="Helvetica, &#34;Helvetica Neue&#34;, Arial, sans-serif" font-size="34" font-weight="700" fill="#f0f6fc" letter-spacing="-0.6">Alex Guardiola</text>
    <text y="74"><tspan fill="#6e7681">role  </tspan><tspan fill="#58a6ff">Cybersecurity &amp; Automation Engineer</tspan></text>
    <text y="100"><tspan fill="#6e7681">stack </tspan><tspan fill="#c9d1d9">power-platform · microsoft-cloud · automation · pentest</tspan></text>
    <text y="132">
      <tspan fill="#7ee787">saskull@ops</tspan><tspan fill="#6e7681">:</tspan><tspan fill="#58a6ff">~</tspan><tspan fill="#6e7681">$ </tspan><tspan fill="#c9d1d9">cat handle</tspan>
    </text>
    <text y="160" fill="#f0f6fc">@SaskullOps</text>
    <rect x="124" y="148" width="9" height="16" fill="#58a6ff"></rect>
  </g>
</g>
</svg>